# xmcd CD database file
# Copyright (C) 1995-1998 Ti Kan
#
# Track frame offsets:
#	150
#	10670
#	22650
#	36215
#	48435
#	57747
#	68175
#	79632
#	89895
#	100247
#	113900
#	127215
#	141187
#	150652
#	164440
#
# Disc length: 2353 seconds
#
# Revision: 1
# Processed by: cddbd v1.4b42PL0 Copyright (c) Steve Scherf et al.
# Submitted via: CDex 1.30Release
#
DISCID=cb092f0f
DTITLE=Loretta Lynn - 30 Greatest Hits Disc One
DYEAR=2001
DGENRE=Country
TTITLE0=Your Lookin' at Country
TTITLE1=One's on the Way
TTITLE2=Coal Miner's Daughter
TTITLE3=Blue Kentucky Girl
TTITLE4=Wine, Women and Song
TTITLE5=They Don't Make 'em Like My Daddy
TTITLE6=Love is the Foundation
TTITLE7=Dear Uncle Sam
TTITLE8=I'm a Honky-Tonk Girl
TTITLE9=When the Tingle Becomes a Chill
TTITLE10=Woman of the World (Leave My World Alone)
TTITLE11=She's Got You
TTITLE12=Your Squaw Is on the Warpath
TTITLE13=Sombody Somewhere (Don't Know What He's Missing Tonight)
TTITLE14=Out of My Head and Back in My Bed
EXTD=YEAR: 2001 ID3G:   2
EXTT0=
EXTT1=
EXTT2=
EXTT3=
EXTT4=
EXTT5=
EXTT6=
EXTT7=
EXTT8=
EXTT9=
EXTT10=
EXTT11=
EXTT12=
EXTT13=
EXTT14=
PLAYORDER=
